<svg xmlns="http://www.w3.org/2000/svg" viewBox="0 0 200 30" fill="currentColor">
  <path d="M4.5 8.5h3.8c2.2 0 3.9.5 5.1 1.6 1.2 1 1.8 2.5 1.8 4.4 0 1.9-.6 3.4-1.8 4.4-1.2 1-2.9 1.6-5.1 1.6h-1.3v4h-2.5V8.5zm2.5 9.5h1.2c1.3 0 2.3-.3 3-.8.7-.6 1-1.4 1-2.7 0-1.2-.3-2.1-1-2.7-.7-.5-1.7-.8-3-.8H7v7zm11.5-9.5h2.5v7.2c0 1.4.3 2.4.9 3.1.6.7 1.5 1 2.7 1s2.1-.3 2.7-1c.6-.7.9-1.7.9-3.1V8.5h2.5v7.2c0 2.1-.5 3.7-1.6 4.8-1.1 1.1-2.6 1.6-4.5 1.6s-3.4-.5-4.5-1.6c-1.1-1.1-1.6-2.7-1.6-4.8V8.5zm17.2 7.2c0-2.3.6-4.1 1.7-5.4 1.2-1.3 2.8-2 4.9-2 2 0 3.6.7 4.8 2 1.2 1.3 1.8 3.1 1.8 5.4 0 2.3-.6 4.1-1.8 5.4-1.2 1.3-2.8 2-4.8 2-2.1 0-3.7-.7-4.9-2-1.1-1.3-1.7-3.1-1.7-5.4zm2.6 0c0 1.7.4 3 1.1 3.9.7.9 1.8 1.4 3.1 1.4 1.3 0 2.3-.5 3-1.4.7-.9 1.1-2.2 1.1-3.9s-.4-3-1.1-3.9c-.7-.9-1.7-1.4-3-1.4-1.3 0-2.4.5-3.1 1.4-.7.9-1.1 2.2-1.1 3.9zm17.2-7.2c2.1 0 3.8.7 5 2.1 1.2 1.4 1.8 3.2 1.8 5.5 0 2.2-.6 4-1.8 5.3-1.2 1.3-2.8 2-4.9 2-2.2 0-3.9-.7-5.1-2-1.2-1.3-1.8-3.1-1.8-5.3 0-2.3.6-4.1 1.8-5.5 1.2-1.4 2.9-2.1 5-2.1zm.1 2.1c-1.3 0-2.4.5-3.1 1.4-.7.9-1.1 2.2-1.1 3.9s.4 3 1.1 3.9c.7.9 1.7 1.4 3 1.4 1.3 0 2.3-.5 3-1.4.7-.9 1.1-2.2 1.1-3.9s-.4-3-1.1-3.9c-.7-.9-1.7-1.4-3-1.4zm10.5 6.1c0-2.3.6-4.1 1.7-5.4 1.2-1.3 2.8-2 4.9-2 2 0 3.6.7 4.8 2 1.2 1.3 1.8 3.1 1.8 5.4 0 2.3-.6 4.1-1.8 5.4-1.2 1.3-2.8 2-4.8 2-2.1 0-3.7-.7-4.9-2-1.1-1.3-1.7-3.1-1.7-5.4zm2.6 0c0 1.7.4 3 1.1 3.9.7.9 1.8 1.4 3.1 1.4 1.3 0 2.3-.5 3-1.4.7-.9 1.1-2.2 1.1-3.9s-.4-3-1.1-3.9c-.7-.9-1.7-1.4-3-1.4-1.3 0-2.4.5-3.1 1.4-.7.9-1.1 2.2-1.1 3.9zm17.2 6.8V8.5h2.5v4.8c.5-.7 1.1-1.2 1.8-1.6.7-.4 1.5-.6 2.4-.6 1.6 0 2.8.5 3.7 1.5.9 1 1.3 2.4 1.3 4.2v7.7h-2.5v-7.4c0-1.2-.3-2.1-.8-2.7-.5-.6-1.3-.9-2.3-.9-1.1 0-2 .4-2.6 1.1-.6.7-.9 1.8-.9 3.1v6.8h-2.6zm16.3-16h2.5v16h-2.5v-16zm7.2 0h2.5v16h-2.5v-16zm7.2 0h2.5v4.8c.5-.7 1.1-1.2 1.8-1.6.7-.4 1.5-.6 2.4-.6 1.6 0 2.8.5 3.7 1.5.9 1 1.3 2.4 1.3 4.2v7.7h-2.5v-7.4c0-1.2-.3-2.1-.8-2.7-.5-.6-1.3-.9-2.3-.9-1.1 0-2 .4-2.6 1.1-.6.7-.9 1.8-.9 3.1v6.8h-2.6v-16zm17.2 8.5c0-2.3.6-4.1 1.7-5.4 1.2-1.3 2.8-2 4.9-2 2 0 3.6.7 4.8 2 1.2 1.3 1.8 3.1 1.8 5.4 0 2.3-.6 4.1-1.8 5.4-1.2 1.3-2.8 2-4.8 2-2.1 0-3.7-.7-4.9-2-1.1-1.3-1.7-3.1-1.7-5.4zm2.6 0c0 1.7.4 3 1.1 3.9.7.9 1.8 1.4 3.1 1.4 1.3 0 2.3-.5 3-1.4.7-.9 1.1-2.2 1.1-3.9s-.4-3-1.1-3.9c-.7-.9-1.7-1.4-3-1.4-1.3 0-2.4.5-3.1 1.4-.7.9-1.1 2.2-1.1 3.9zm17.2-7.2c2.1 0 3.8.7 5 2.1 1.2 1.4 1.8 3.2 1.8 5.5 0 2.2-.6 4-1.8 5.3-1.2 1.3-2.8 2-4.9 2-2.2 0-3.9-.7-5.1-2-1.2-1.3-1.8-3.1-1.8-5.3 0-2.3.6-4.1 1.8-5.5 1.2-1.4 2.9-2.1 5-2.1zm.1 2.1c-1.3 0-2.4.5-3.1 1.4-.7.9-1.1 2.2-1.1 3.9s.4 3 1.1 3.9c.7.9 1.7 1.4 3 1.4 1.3 0 2.3-.5 3-1.4.7-.9 1.1-2.2 1.1-3.9s-.4-3-1.1-3.9c-.7-.9-1.7-1.4-3-1.4z"/>
</svg>