<?xml version="1.0" encoding="UTF-8"?>
<svg width="256" height="256" version="1.1" viewBox="0 0 67.733 67.733" xmlns="http://www.w3.org/2000/svg">
 <g transform="matrix(.26458 0 0 .26458 -23.283 -23.283)">
  <circle cx="216" cy="216" r="128" fill="#2f3441"/>
  <path d="m216 144c-39.765 0-72 32.235-72 72s32.235 72 72 72 72-32.235 72-72-32.235-72-72-72zm0 126c-29.823 0-54-24.177-54-54s24.177-54 54-54 54 24.177 54 54-24.177 54-54 54z" fill="#fff"/>
  <path d="m216 180c-19.882 0-36 16.118-36 36s16.118 36 36 36 36-16.118 36-36-16.118-36-36-36zm0 54c-9.941 0-18-8.059-18-18s8.059-18 18-18 18 8.059 18 18-8.059 18-18 18z" fill="#14b8a6"/>
 </g>
</svg>