<?xml version="1.0" encoding="UTF-8"?>
<svg width="256" height="256" version="1.1" viewBox="0 0 67.733 67.733" xmlns="http://www.w3.org/2000/svg">
 <g transform="matrix(.26458 0 0 .26458 -23.283 -23.283)">
  <circle cx="216" cy="216" r="128" fill="#2f3441"/>
  <path d="m216 144c-39.765 0-72 32.235-72 72 0 19.882 8.059 37.941 21.176 51.059l21.176-21.176c-7.941-7.941-12.706-18.882-12.706-29.882 0-23.294 18.882-42.176 42.353-42.176s42.353 18.882 42.353 42.176c0 11-4.765 21.941-12.706 29.882l21.176 21.176c13.118-13.118 21.176-31.176 21.176-51.059 0-39.765-32.235-72-72-72z" fill="#fff"/>
  <circle cx="216" cy="216" r="24" fill="#14b8a6"/>
 </g>
</svg>